<?xml version="1.0" encoding="utf-8"?><svg width="64" height="55" viewBox="0 0 64 55" xmlns="http://www.w3.org/2000/svg"><path d="M31.89 33.104l5.59-6.087a3.473 3.473 0 1 0-5.096-4.708.998.998 0 0 1-1.516 0 3.477 3.477 0 0 0-2.633-1.207 3.474 3.474 0 0 0-2.487 5.89l5.614 6.113a.35.35 0 0 0 .53-.002m-.267 2.124a2.34 2.34 0 0 1-1.734-.767l-5.595-6.092a5.424 5.424 0 0 1-1.53-3.794 5.476 5.476 0 0 1 5.47-5.47c1.24 0 2.43.42 3.39 1.175a5.465 5.465 0 0 1 3.39-1.177c1.458 0 2.832.57 3.866 1.604a5.428 5.428 0 0 1 1.605 3.868 5.44 5.44 0 0 1-1.552 3.817l-5.57 6.067c-.46.496-1.076.768-1.738.768M19.172 48.342a1.374 1.374 0 0 0 .262 2.737 1.375 1.375 0 0 0-.262-2.738M11.104 41.455a1.375 1.375 0 1 0 1.5 1.238 1.376 1.376 0 0 0-1.5-1.24M48.827 8.917a1.375 1.375 0 1 0 .282-2.736 1.375 1.375 0 0 0-.283 2.735m-4.344-2.963a1.376 1.376 0 0 0 .283-2.736 1.374 1.374 0 0 0-1.508 1.226 1.374 1.374 0 0 0 1.225 1.51M63.007 28.18l-4.73-5.476a.998.998 0 0 0-.742-.347c-.302.025-.56.114-.752.324l-5.02 5.478a1 1 0 0 0 1.475 1.35l3.32-3.623c.02.412.038.826.038 1.24 0 13.853-11.27 25.125-25.125 25.125a1 1 0 0 0 0 2c14.958 0 27.126-12.168 27.126-27.125 0-.343-.018-.685-.03-1.028l2.928 3.39a.996.996 0 0 0 1.41.103 1 1 0 0 0 .103-1.41m-51.515-2.05l-4.89 5.402c-.19.21-.46.33-.742.33h-.002a.997.997 0 0 1-.74-.332l-4.86-5.403a1 1 0 1 1 1.486-1.337l3.07 3.413c-.015-.36-.036-.72-.036-1.078C4.778 12.167 16.946 0 31.903 0a1 1 0 0 1 0 2C18.05 2 6.778 13.27 6.778 27.125c0 .394.02.792.04 1.19l3.19-3.527a1 1 0 1 1 1.483 1.34"/></svg>