<svg width="21px" height="53px" viewBox="0 0 21 53" version="1.1" xmlns="http://www.w3.org/2000/svg" xmlns:xlink="http://www.w3.org/1999/xlink">
    <path d="M-7.83437167,24.5552035 L-3.93388597,20.3611915 C-3.05912814,19.5003041 -3.04788394,18.0932856 -3.90877135,17.2185278 C-4.76965877,16.34377 -6.17667723,16.3325258 -7.05143506,17.1934132 L-14.8915368,24.9091999 C-15.7712417,25.774956 -15.7769026,27.1917127 -14.9041442,28.0644711 L-7.06404255,35.9045728 C-6.19619221,36.7724231 -4.78912882,36.7724231 -3.92127849,35.9045728 C-3.05342815,35.0367225 -3.05342815,33.6296591 -3.92127849,32.7618088 L-7.96043319,28.999743 L34.2177594,28.999743 C35.4478482,28.999743 36.4450322,28.004799 36.4450322,26.7774733 C36.4450322,25.5501476 35.4478482,24.5552035 34.2177594,24.5552035 L-7.83437167,24.5552035 Z" id="Shape-Copy-7" transform="translate(10.445000, 26.555246) rotate(-270.000000) translate(-10.445000, -26.555246) "></path>
</svg>