<?xml version="1.0" encoding="utf-8"?><svg width="76" height="50" viewBox="0 0 76 50" xmlns="http://www.w3.org/2000/svg"><path d="M74.317-.227c-.582 2.182-4.813 4.612-9.247 4.612-3.675 0-6.154-.616-9.927-2.136l-.953-.387c-.38-.154-.67-.27-.954-.38-2.598-1.015-4.514-1.484-6.84-1.514-3.17-.042-5.673.876-7.546 2.438-1.118.933-1.79 1.88-2.104 2.556h1.814c-.314-.676-.985-1.623-2.103-2.556C34.583.846 32.08-.072 28.91-.032c-2.325.03-4.24.5-6.84 1.514-.283.11-.573.227-.953.38l-.953.387c-3.774 1.52-6.253 2.135-9.928 2.135-4.3 0-8.52-2.44-9.29-4.706A1 1 0 0 0-.946.32C.126 3.483 5.145 6.386 10.236 6.386c3.974 0 6.685-.673 10.675-2.28l.957-.388c.374-.152.656-.265.93-.372 2.395-.934 4.093-1.35 6.14-1.376 2.686-.036 4.726.713 6.24 1.974.51.426.92.88 1.24 1.33.182.258.29.447.33.532a1 1 0 0 0 1.813 0c.04-.085.147-.274.33-.532.32-.45.73-.904 1.24-1.33 1.514-1.26 3.554-2.01 6.24-1.975 2.047.025 3.745.44 6.138 1.375.275.107.558.22.932.372l.955.387c3.99 1.608 6.7 2.28 10.675 2.28 5.255 0 10.33-2.915 11.18-6.096a1 1 0 0 0-1.933-.515zm-32.324 24.17c-3.218 2.272-7.027 1.243-8.802-.003a.997.997 0 0 0-1.39.244.998.998 0 0 0 .243 1.392c1.456 1.023 3.48 1.726 5.64 1.726 1.816 0 3.725-.5 5.464-1.728a1 1 0 1 0-1.154-1.632zm32.397 19.83c-.365 2.153-4.71 4.748-9.276 4.748-3.675 0-6.154-.615-9.928-2.135L54.234 46c-.38-.155-.67-.27-.955-.382-2.6-1.014-4.515-1.483-6.84-1.513-3.17-.04-5.673.877-7.547 2.44-1.118.932-1.79 1.88-2.103 2.555h1.814c-.314-.676-.986-1.623-2.104-2.556-1.873-1.562-4.375-2.48-7.545-2.44-2.327.03-4.243.5-6.84 1.514-.284.11-.574.227-.955.38l-.953.387c-3.773 1.52-6.252 2.136-9.927 2.136-4.38 0-8.676-2.54-9.318-4.798a1 1 0 1 0-1.924.548c.916 3.217 6.044 6.25 11.242 6.25 3.974 0 6.684-.672 10.675-2.28.213-.086.94-.382.956-.387.374-.152.657-.265.932-.372 2.393-.933 4.09-1.35 6.14-1.375 2.684-.035 4.725.714 6.237 1.975.51.426.92.88 1.24 1.33.183.258.29.447.33.532a1 1 0 0 0 1.814 0c.04-.085.147-.274.33-.532.32-.45.73-.904 1.24-1.33 1.513-1.26 3.554-2.01 6.24-1.975 2.046.026 3.744.442 6.138 1.376.275.108.557.22.93.373l.957.387c3.99 1.608 6.7 2.28 10.674 2.28 5.438 0 10.692-3.137 11.248-6.413a1 1 0 0 0-1.972-.335z"/></svg>