<?xml version="1.0" encoding="UTF-8" standalone="no"?>
<svg width="35px" height="35px" viewBox="0 0 35 35" version="1.1" xmlns="http://www.w3.org/2000/svg" xmlns:xlink="http://www.w3.org/1999/xlink">
    <!-- Generator: Sketch 3.6.1 (26313) - http://www.bohemiancoding.com/sketch -->
    <title>instagram</title>
    <desc>Created with Sketch.</desc>
    <defs></defs>
    <g id="Icons" stroke="none" stroke-width="1" fill="none" fill-rule="evenodd">
        <g id="instagram" fill="#341717">
            <path d="M2.5,2.99921059 L2.5,2.99921059 L2.5,32.0007894 C2.5,32.2723914 2.72720029,32.5 2.99921059,32.5 L32.0007894,32.5 C32.2723914,32.5 32.5,32.2727997 32.5,32.0007894 L32.5,2.99921059 C32.5,2.72760861 32.2727997,2.5 32.0007894,2.5 L2.99921059,2.5 C2.72760861,2.5 2.5,2.72720029 2.5,2.99921059 L2.5,2.99921059 Z M0,2.99921059 C0,1.34279232 1.35059566,0 2.99921059,0 L32.0007894,0 C33.6572077,0 35,1.35059566 35,2.99921059 L35,32.0007894 C35,33.6572077 33.6494043,35 32.0007894,35 L2.99921059,35 C1.34279232,35 0,33.6494043 0,32.0007894 L0,2.99921059 L0,2.99921059 Z" id="Rectangle-347"></path>
            <path d="M0.639316476,15.5 L10.6106835,15.5 L11,15.5 L11,13 L10.6106835,13 L0.639316476,13 L0.25,13 L0.25,15.5 L0.639316476,15.5 L0.639316476,15.5 Z" id="Line"></path>
            <path d="M24.3893165,15.5 L34.3606835,15.5 L34.75,15.5 L34.75,13 L34.3606835,13 L24.3893165,13 L24,13 L24,15.5 L24.3893165,15.5 L24.3893165,15.5 Z" id="Line-Copy-8"></path>
            <path d="M17.5,25.25 C22.3324916,25.25 26.25,21.3324916 26.25,16.5 C26.25,11.6675084 22.3324916,7.75 17.5,7.75 C12.6675084,7.75 8.75,11.6675084 8.75,16.5 C8.75,21.3324916 12.6675084,25.25 17.5,25.25 L17.5,25.25 Z M17.5,22.75 C14.0482203,22.75 11.25,19.9517797 11.25,16.5 C11.25,13.0482203 14.0482203,10.25 17.5,10.25 C20.9517797,10.25 23.75,13.0482203 23.75,16.5 C23.75,19.9517797 20.9517797,22.75 17.5,22.75 L17.5,22.75 Z" id="Oval-45"></path>
            <path d="M29.5,1.99810135 L29.5,1.99810135 L29.5,6.00189865 C29.5,5.72833452 29.2710422,5.5 28.9981014,5.5 L33.0018986,5.5 C32.7283345,5.5 32.5,5.72895776 32.5,6.00189865 L32.5,1.99810135 C32.5,2.27166548 32.7289578,2.5 33.0018986,2.5 L28.9981014,2.5 C29.2716655,2.5 29.5,2.27104224 29.5,1.99810135 L29.5,1.99810135 Z M27,1.99810135 C27,0.894580447 27.8867064,0 28.9981014,0 L33.0018986,0 C34.1054196,0 35,0.886706352 35,1.99810135 L35,6.00189865 C35,7.10541955 34.1132936,8 33.0018986,8 L28.9981014,8 C27.8945804,8 27,7.11329365 27,6.00189865 L27,1.99810135 L27,1.99810135 Z" id="Rectangle-348"></path>
        </g>
    </g>
</svg>