<svg width="14px" height="14px" viewBox="0 0 14 14" version="1.1" xmlns="http://www.w3.org/2000/svg" xmlns:xlink="http://www.w3.org/1999/xlink">
    <path d="M6,7.5 L0.75,7.5 C0.335786438,7.5 0,7.16421356 0,6.75 C0,6.33578644 0.335786438,6 0.75,6 L6,6 L6,0.75 C6,0.335786438 6.33578644,0 6.75,0 C7.16421356,0 7.5,0.335786438 7.5,0.75 L7.5,6 L12.75,6 C13.1642136,6 13.5,6.33578644 13.5,6.75 C13.5,7.16421356 13.1642136,7.5 12.75,7.5 L7.5,7.5 L7.5,12.75 C7.5,13.1642136 7.16421356,13.5 6.75,13.5 C6.33578644,13.5 6,13.1642136 6,12.75 L6,7.5 Z"></path>
</svg>