<?xml version="1.0" standalone="no"?>
<!DOCTYPE svg PUBLIC "-//W3C//DTD SVG 20010904//EN"
 "http://www.w3.org/TR/2001/REC-SVG-20010904/DTD/svg10.dtd">
<svg version="1.0" xmlns="http://www.w3.org/2000/svg"
 width="280.000000pt" height="280.000000pt" viewBox="0 0 280.000000 280.000000"
 preserveAspectRatio="xMidYMid meet">
<metadata>
Created by potrace 1.11, written by Peter Selinger 2001-2013
</metadata>
<g transform="translate(0.000000,280.000000) scale(0.100000,-0.100000)"
fill="#000000" stroke="none">
<path d="M1222 2789 c-175 -24 -360 -86 -507 -170 -129 -74 -219 -145 -326
-257 -187 -195 -303 -414 -361 -685 -31 -146 -31 -408 0 -554 62 -287 178
-499 387 -708 209 -209 421 -325 708 -387 146 -31 408 -31 554 0 287 62 499
178 708 387 209 209 325 421 387 708 31 146 31 408 0 554 -62 287 -178 499
-387 708 -208 208 -424 327 -703 385 -114 24 -350 34 -460 19z m-209 -1293
c135 -69 249 -97 390 -97 174 0 282 31 424 121 58 37 101 39 141 5 71 -60 48
-129 -66 -198 -278 -168 -643 -180 -948 -32 -118 57 -164 99 -164 149 0 47 13
72 48 90 43 24 61 20 175 -38z"/>
</g>
</svg>
