<?xml version="1.0" standalone="no"?>
<!DOCTYPE svg PUBLIC "-//W3C//DTD SVG 20010904//EN"
 "http://www.w3.org/TR/2001/REC-SVG-20010904/DTD/svg10.dtd">
<svg version="1.0" xmlns="http://www.w3.org/2000/svg"
 width="16.000000pt" height="16.000000pt" viewBox="0 0 16.000000 16.000000"
 preserveAspectRatio="xMidYMid meet">
<metadata>
Created by potrace 1.11, written by Peter Selinger 2001-2013
</metadata>
<g transform="translate(0.000000,16.000000) scale(0.006154,-0.006154)"
fill="#000000" stroke="none">
<path d="M2056 2463 c-1 -1 -24 -5 -51 -8 -28 -4 -55 -11 -61 -16 -6 -5 -16
-4 -24 4 -10 9 -11 9 -6 -1 4 -7 0 -15 -11 -19 -10 -3 -26 -13 -35 -21 -10 -8
-18 -12 -18 -7 0 13 -109 -105 -115 -125 -4 -11 -11 -20 -17 -20 -6 0 -8 -3
-5 -6 3 -4 1 -16 -5 -28 -7 -11 -13 -28 -15 -36 -11 -60 -15 -110 -14 -212 l0
-117 -80 -3 c-44 -2 -84 1 -90 7 -6 5 -9 5 -9 -1 0 -13 -43 -12 -52 1 -5 7 -8
7 -8 0 0 -6 -63 -9 -170 -9 -94 1 -187 -3 -208 -8 -20 -6 -47 -11 -59 -12 -11
0 -19 -4 -16 -8 4 -7 -12 -12 -29 -9 -5 0 -8 -4 -8 -9 0 -6 -4 -10 -10 -10
-27 0 -102 -81 -140 -151 -32 -60 -38 -83 -39 -140 l-1 -37 -112 -1 c-139 -2
-150 -5 -172 -42 -14 -24 -16 -36 -7 -59 5 -17 7 -30 3 -30 -4 -1 5 -8 21 -16
19 -10 60 -15 145 -15 l119 -1 0 -50 c1 -42 -2 -48 -16 -44 -14 5 -14 4 -1 -7
20 -17 23 -36 8 -55 -7 -9 -8 -13 -2 -9 8 5 11 -25 10 -103 0 -61 -3 -111 -6
-111 -25 -7 -50 -4 -50 5 0 7 -3 8 -8 1 -9 -14 -104 -16 -95 -2 4 6 1 7 -8 1
-21 -13 -69 -13 -69 0 0 7 -4 6 -9 -2 -4 -7 -12 -12 -17 -11 -5 2 -33 -3 -62
-9 -81 -18 -211 -111 -227 -162 -3 -11 -11 -20 -16 -20 -5 0 -9 -7 -9 -15 0
-9 -7 -30 -16 -46 -21 -42 -29 -145 -15 -210 34 -159 162 -280 321 -304 56 -9
180 -3 173 8 -2 4 3 7 11 7 20 0 102 46 127 71 10 10 23 19 29 19 5 0 10 6 10
14 0 8 3 16 8 18 15 6 58 84 72 128 7 25 15 72 16 105 2 33 5 79 7 103 1 24
-1 45 -4 48 -4 2 -4 17 0 32 4 15 6 33 4 40 -3 6 4 12 14 13 30 1 189 0 199
-2 5 -1 14 0 19 1 19 4 107 1 112 -4 3 -3 16 -1 29 4 17 7 24 6 24 -3 0 -7 3
-8 8 -2 4 6 50 11 102 12 82 1 128 6 138 13 1 2 5 3 10 4 4 1 27 12 52 25 56
30 118 91 156 156 32 56 30 50 46 128 12 57 23 67 47 45 9 -9 12 -9 7 -1 -4 8
21 11 95 11 85 0 105 3 128 19 39 29 41 85 5 118 -25 23 -34 25 -138 26 -61 1
-116 1 -121 0 -15 -1 -16 377 -2 386 6 4 7 1 2 -8 -8 -12 -6 -12 8 0 14 11 17
11 17 0 0 -9 3 -10 8 -4 10 14 84 17 76 3 -5 -7 -2 -8 6 -3 22 13 84 14 92 2
5 -8 8 -8 8 -1 0 6 20 12 44 12 25 1 65 11 90 22 25 10 46 17 46 15 0 -3 9 4
20 15 11 11 25 20 31 20 30 0 131 145 146 210 9 41 18 168 11 164 -4 -3 -8 3
-8 13 -1 58 -69 176 -126 218 -15 11 -32 25 -38 30 -17 16 -112 55 -135 55
-12 0 -21 3 -21 8 0 6 -68 11 -74 5z m72 -172 c7 0 10 -5 7 -11 -3 -6 1 -7 9
-4 20 8 86 -33 86 -52 0 -9 4 -13 8 -10 5 3 19 -14 32 -37 36 -63 33 -150 -6
-213 -57 -91 -147 -128 -281 -114 -29 3 -53 3 -53 0 0 -3 -20 -5 -44 -5 l-44
0 2 145 c3 140 14 199 36 185 6 -3 7 1 4 9 -9 24 69 94 99 88 4 -1 7 2 7 7 0
15 53 20 138 12z m-899 -615 c9 -6 12 -5 8 0 -3 6 27 10 74 9 43 0 79 -4 79
-8 0 -5 6 -5 13 0 19 12 40 13 53 2 8 -7 15 -6 19 2 6 8 10 7 16 -2 5 -8 9 -9
9 -4 0 13 49 13 69 1 9 -6 12 -5 7 2 -7 12 32 11 51 -1 6 -4 14 -3 18 2 3 6
12 8 19 5 11 -4 14 -45 15 -194 l1 -189 -126 0 c-69 -1 -134 -6 -144 -11 -11
-6 -26 -23 -34 -38 -12 -23 -12 -32 -1 -59 21 -49 45 -56 182 -55 120 1 122 0
117 -21 -6 -37 -47 -111 -74 -135 -44 -40 -50 -43 -62 -36 -6 4 -8 3 -4 -4 3
-6 -2 -13 -12 -16 -30 -10 -115 -15 -127 -8 -15 9 -36 11 -31 3 7 -11 -128 -8
-136 3 -5 8 -8 8 -8 1 0 -15 -40 -16 -40 -2 0 8 -3 8 -8 2 -8 -12 -122 -15
-122 -3 0 5 -9 3 -19 -4 -15 -9 -23 -9 -34 1 -10 8 -17 9 -22 2 -3 -6 -16 -10
-29 -9 -22 2 -23 6 -25 88 -2 130 -1 202 5 211 2 4 0 10 -5 13 -6 4 -6 18 -1
35 4 16 6 32 2 35 -11 12 25 6 37 -6 9 -9 12 -9 7 -1 -5 9 22 11 106 10 109
-2 114 -1 135 23 13 14 23 27 24 30 8 41 3 62 -21 85 -25 24 -31 25 -159 26
l-132 0 5 33 c8 50 25 88 36 81 5 -3 7 0 4 8 -7 20 62 75 110 88 23 5 45 11
49 12 22 6 93 1 106 -7z m-493 -925 c20 -1 20 -6 19 -138 -2 -160 -13 -193
-80 -255 -136 -125 -363 -26 -370 161 -2 79 55 191 91 177 7 -3 11 0 8 7 -5
15 51 41 67 31 7 -4 9 -3 5 4 -4 7 8 12 36 14 37 3 74 2 224 -1z"/>
<path d="M936 1258 c3 -5 10 -6 15 -3 13 9 11 12 -6 12 -8 0 -12 -4 -9 -9z"/>
<path d="M1466 1078 c3 -5 10 -6 15 -3 13 9 11 12 -6 12 -8 0 -12 -4 -9 -9z"/>
<path d="M956 958 c3 -5 10 -6 15 -3 13 9 11 12 -6 12 -8 0 -12 -4 -9 -9z"/>
<path d="M395 611 c-3 -5 -2 -12 3 -15 5 -3 9 1 9 9 0 17 -3 19 -12 6z"/>
<path d="M386 398 c3 -5 10 -6 15 -3 13 9 11 12 -6 12 -8 0 -12 -4 -9 -9z"/>
<path d="M1950 1576 c0 -2 8 -10 18 -17 15 -13 16 -12 3 4 -13 16 -21 21 -21
13z"/>
<path d="M1870 1561 c0 -6 4 -13 10 -16 6 -3 7 1 4 9 -7 18 -14 21 -14 7z"/>
<path d="M735 1249 c-4 -6 -5 -12 -2 -15 2 -3 7 2 10 11 7 17 1 20 -8 4z"/>
<path d="M950 720 c0 -5 5 -10 11 -10 5 0 7 5 4 10 -3 6 -8 10 -11 10 -2 0 -4
-4 -4 -10z"/>
</g>
</svg>
