<svg xmlns="http://www.w3.org/2000/svg"><symbol id="icon-arrow-down" viewBox="0 0 24 24"><style>.ast0{fill:#f3f3f3}</style><path id="aarrow-thin-right-copy" class="ast0" d="M7.7 14.2c-.1-.1-.2-.3-.2-.4 0-.2.1-.3.2-.4.2-.2.6-.2.9 0l2.8 2.8V6.1c0-.3.3-.6.6-.6s.6.3.6.6v10.1l2.8-2.8c.2-.2.6-.2.9 0 .2.2.2.6 0 .9l-3.9 3.9c-.2.2-.6.2-.9 0l-3.8-4z"/></symbol><symbol id="icon-arrow-left" viewBox="0 0 24 24"><style>.bst0{fill:#f3f3f3}</style><path id="barrow-thin-right" class="bst0" d="M7.1 7.7c.1-.1.3-.2.4-.2.2 0 .3.1.4.2.2.2.2.6 0 .9l-2.8 2.8h15.1c.3 0 .6.3.6.6s-.3.6-.6.6H5.1l2.8 2.8c.2.2.2.6 0 .9s-.6.2-.9 0l-3.9-3.9c-.2-.2-.2-.6 0-.9l4-3.8z"/></symbol><symbol id="icon-arrow-right" viewBox="0 0 24 24"><style>.cst0{fill:#f3f3f3}</style><path id="carrow-thin-right" class="cst0" d="M16.7 16.3c-.1.1-.3.2-.4.2-.2 0-.3-.1-.4-.2-.2-.2-.2-.6 0-.9l2.8-2.8H3.6c-.3 0-.6-.3-.6-.6s.3-.6.6-.6h15.1l-2.8-2.8c-.2-.2-.2-.6 0-.9.2-.2.6-.2.9 0l3.9 3.9c.2.2.2.6 0 .9l-4 3.8z"/></symbol><symbol id="icon-logo" viewBox="0 0 104 14"><style>.dst0{fill:#fff}</style><path id="dlogo-copy-2" class="dst0" d="M3.7 14c-1.4 0-2.5-.6-3-1.5S0 10.9 0 8.8V5c0-2.2.2-2.9.8-3.8C1.4.4 2.4 0 3.7 0 6 0 7.3 1.5 7.4 4.1c0 0 0 .2-.2.4 0 0-.1.2-.4.2h-1c-.2 0-.4-.2-.4-.2-.1-.2-.1-.3-.1-.4C5.2 2.7 4.7 2 3.7 2c-1.2 0-1.6.7-1.6 2.6v4.5c0 2.2.4 2.9 1.6 2.9 1.1 0 1.6-.8 1.7-2.5 0-.1 0-.2.2-.4 0 0 .2-.2.4-.2h1c.3 0 .4.2.4.2.2.1.2.4.2.4-.2 3-1.5 4.5-3.9 4.5zm13.6-1.3c-.7.9-1.7 1.3-2.9 1.3-1.3 0-2.4-.5-2.9-1.3-.6-.8-.8-1.7-.8-3.2v-5c0-1.5.2-2.5.8-3.2.6-.8 1.6-1.3 2.9-1.3 1.3 0 2.4.5 2.9 1.3.6.8.8 1.7.8 3.2v4.9c0 1.6-.2 2.5-.8 3.3zM16 4.6c0-2-.4-2.6-1.6-2.6-1.2 0-1.6.7-1.6 2.6v4.9c0 1.9.4 2.6 1.6 2.6 1.2 0 1.6-.7 1.6-2.6V4.6zm11.1 8.6c0 .2-.2.4-.2.4s-.2.2-.4.2h-.2c-.3 0-.4-.2-.5-.2 0 0-.2-.2-.2-.4l-2-8.8c0-.2-.1-.2-.1-.2v8.9c0 .2-.2.4-.2.4s-.2.2-.4.2H22c-.2 0-.4-.1-.4-.2 0 0-.2-.2-.2-.4V.7c0-.3.1-.4.1-.4s.1-.1.4-.1h2c.3 0 .5.2.5.2s.2.2.2.4l1.6 7c0 .1.1.1.1.1s.1 0 .1-.1l1.7-7c.1-.3.2-.4.2-.4s.2-.2.5-.2h.8s.3 0 .4.2c.1.2.1.4.1.4l-3 12.4zm17.6-.5c-.7.9-1.7 1.3-2.9 1.3-1.3 0-2.4-.5-2.9-1.3-.6-.8-.9-1.7-.9-3.2v-5c0-1.5.2-2.5.8-3.2.7-.8 1.6-1.3 3-1.3 1.3 0 2.4.5 2.9 1.3.6.8.8 1.7.8 3.2v4.9c0 1.6-.2 2.5-.8 3.3zm-1.3-8.1c0-1.9-.4-2.6-1.6-2.6-1.2 0-1.6.7-1.6 2.6v4.9c0 1.9.4 2.6 1.6 2.6 1.2 0 1.6-.7 1.6-2.6V4.6zm12.8 9s-.1.2-.4.2h-1c-.4 0-.5-.2-.5-.2s-.2-.2-.3-.4l-2.9-7.1c-.1-.2-.1-.2-.2-.2 0 0-.1 0-.1.2v7.1c0 .3-.1.4-.2.4s-.1.2-.4.2h-1c-.2 0-.4-.1-.4-.2s-.1-.1-.1-.4V.8c0-.2.1-.4.1-.4s.2-.2.4-.2h1c.3 0 .5.2.5.2s.2.2.2.3l3 7.1c.1.2.1.2.2.2 0 0 .1 0 .1-.2v-7c0-.2.1-.4.2-.4 0 0 .2-.2.4-.2h1c.2 0 .4.1.4.1s.2.2.2.4v12.5c0 .2-.2.4-.2.4zm14.7 0s-.1.2-.4.2h-1c-.3 0-.4-.1-.4-.1l-.2-.2c-.1-.1-.2.1-.3.1-.5.3-1 .4-1.6.4-1.3 0-2.3-.6-2.8-1.6-.5-.9-.6-1.7-.6-3.6V5c0-2.2.1-2.9.8-3.8C65 .4 66 0 67.3 0 69.6 0 71 1.5 71 4.1c0 0 0 .2-.1.4 0 0-.2.2-.4.2h-1c-.2 0-.4-.2-.4-.2-.1-.1-.1-.3-.2-.4-.1-1.4-.6-2.1-1.6-2.1-1.1 0-1.5.7-1.5 2.7v4.1c0 2.4.4 3.3 1.7 3.3 1.1 0 1.5-.7 1.5-2.7 0-.3-.2-.4-.2-.4s-.1-.1-.4-.1h-.6c-.2 0-.4-.1-.4-.2 0 0-.2-.2-.2-.4v-.7c0-.3.1-.4.2-.4s.1-.2.3-.2h2.7c.2 0 .4.2.4.2s.2.2.2.4v5.7c0 .2-.1.3-.1.3zm10.1-.9c-.7.9-1.7 1.3-2.9 1.3-1.3 0-2.4-.5-2.9-1.3-.6-.8-.8-1.7-.8-3.2v-5c0-1.5.2-2.5.8-3.2.6-.8 1.5-1.3 2.9-1.3 1.3 0 2.4.5 2.9 1.3.6.8.8 1.7.8 3.2v4.9c0 1.6-.2 2.5-.8 3.3zm-1.3-8.1c0-1.9-.4-2.6-1.6-2.6-1.2 0-1.6.7-1.6 2.6v4.9c0 1.9.4 2.6 1.6 2.6 1.2 0 1.6-.7 1.6-2.6V4.6zm12 8.1c-.7.9-1.7 1.3-2.9 1.3-1.3 0-2.4-.5-2.9-1.3-.6-.8-.8-1.7-.8-3.2v-5c0-1.5.2-2.5.8-3.2.6-.8 1.6-1.3 2.9-1.3 1.3 0 2.4.5 2.9 1.3.6.8.8 1.7.8 3.2v4.9c0 1.6-.2 2.5-.8 3.3zm-1.3-8.1c0-2-.4-2.6-1.6-2.6-1.2 0-1.6.7-1.6 2.6v4.9c0 1.9.4 2.6 1.6 2.6 1.2 0 1.6-.7 1.6-2.6V4.6zm8.7 9.2h-2.8c-.2 0-.3-.2-.4-.2 0 0-.1-.2-.1-.4V.8c0-.2.2-.4.2-.4s.2-.2.3-.2h2.8c2.7 0 3.9 1.4 3.9 4.2v5.1c.1 2.9-1.2 4.3-3.9 4.3zm1.8-8.8c0-2.1-.5-2.9-2-2.9h-.5c-.2 0-.4.2-.4.2s-.1.1-.1.4v8.7c0 .1.1.3.1.3s.2.2.4.2h.5c1.5 0 2-.8 2-2.9V5zM31.6.8c.1-.3.2-.4.2-.4s.2-.2.5-.2h1.9c.2 0 .4.2.4.2s.2.2.2.4v12.5c0 .2-.1.4-.2.4 0 0-.2.1-.4.1h-.9c-.2 0-.4-.1-.4-.2 0 0-.2-.2-.2-.4V4.5c0-.2 0-.2-.1-.2l-.1.2-2.1 8.8c-.1.2-.2.3-.2.4 0 0-.2.2-.4.2h-.5c-.3 0-.4 0-.5-.1-.1 0-.3-.2-.2-.5.1-.3 3-12.5 3-12.5z"/></symbol><symbol id="icon-logo-icon" viewBox="0 0 24 24"><style>.est0{fill:#93939e}</style><path id="eCombined-Shape" class="est0" d="M0 24V0h24v24H0zm6.5-4.8c2.5 0 3.9-1.6 3.9-4.6 0 0 0-.3-.2-.4 0 0-.1-.2-.4-.2h-1c-.3 0-.4.2-.4.2-.1.1-.2.3-.2.4 0 1.7-.6 2.6-1.7 2.6-1.2 0-1.6-.8-1.6-3.1V9.4c0-2 .4-2.8 1.6-2.8 1.1 0 1.6.8 1.7 2.2 0 .1 0 .2.2.4 0 0 .2.2.4.2h1c.3 0 .4-.2.4-.2.2-.1.2-.3.2-.4 0-2.7-1.5-4.3-3.9-4.3-1.3 0-2.3.5-3 1.3-.7.9-.9 1.7-.9 4v3.9c0 2.1.2 2.9.7 3.8.6 1.1 1.8 1.7 3.2 1.7zm14.5-.4s.2-.2.2-.4v-5.9c0-.2-.1-.4-.2-.4 0 0-.2-.2-.4-.2h-2.9c-.2 0-.4.1-.4.1s-.2.2-.2.5v.6c0 .3.1.4.2.4 0 0 .2.2.4.2h.7c.3 0 .4.1.4.1s.2.2.2.5c0 2.1-.5 2.8-1.6 2.8-1.3 0-1.7-.9-1.7-3.4V9.4c0-2 .4-2.8 1.6-2.8 1.1 0 1.6.8 1.7 2.2 0 .1 0 .3.2.4 0 0 .2.2.4.2h1.1c.2 0 .4-.2.4-.2.2-.1.1-.4.1-.4 0-2.7-1.5-4.3-3.8-4.3-1.3 0-2.3.5-3 1.3-.7.9-.8 1.6-.8 3.9v3.9c0 2 .1 2.9.6 3.8.5 1 1.6 1.7 2.9 1.7.7 0 1.2-.1 1.7-.5.1-.1.2-.2.3-.1l.2.2s.1.1.4.1h1.1c.1.1.2 0 .2 0z"/></symbol><symbol id="icon-play" viewBox="0 0 24 24"><style>.fst0{fill:#fff}</style><path id="fmedia-play" class="fst0" d="M17 11.3c.2.2.3.4.3.7 0 .3-.1.5-.3.7l-9.1 7.1c-.2.1-.3.2-.5.2-.1 0-.3 0-.4-.1-.3-.1-.5-.4-.5-.8V4.9c0-.3.2-.6.5-.8.3-.2.6-.1.9.1l9.1 7.1z"/></symbol></svg>