<svg width="64" height="57" viewBox="0 0 64 57" xmlns="http://www.w3.org/2000/svg"><path d="M36.102 35.372a1 1 0 0 1-.24 1.394 9.382 9.382 0 0 1-5.464 1.727c-2.158 0-4.185-.704-5.64-1.725a1 1 0 1 1 1.148-1.637c1.775 1.248 5.585 2.272 8.802.003a1 1 0 0 1 1.394.24m20.424-5.49L34.752 53.592c-.836.91-1.956 1.41-3.154 1.41-1.197 0-2.316-.5-3.152-1.41L6.64 29.85A16.314 16.314 0 0 1 2 18.415C2 9.367 9.357 2.008 18.4 2.008c4.783 0 9.317 2.08 12.44 5.707a1 1 0 0 0 1.517 0 16.378 16.378 0 0 1 12.438-5.707c4.374 0 8.493 1.708 11.594 4.81a16.287 16.287 0 0 1 4.81 11.596c0 4.305-1.653 8.37-4.674 11.47m1.278-24.48c-3.48-3.48-8.1-5.396-13.01-5.396A18.378 18.378 0 0 0 31.598 5.58 18.398 18.398 0 0 0 18.4.01C8.254.008 0 8.265 0 18.414c0 4.822 1.85 9.38 5.188 12.812l21.785 23.718C28.193 56.27 29.833 57 31.598 57c1.765 0 3.408-.73 4.627-2.056L57.978 31.26A18.303 18.303 0 0 0 63.2 18.413c0-4.91-1.915-9.53-5.396-13.01"/></svg>