<svg width="50" height="59" viewBox="0 0 50 59" xmlns="http://www.w3.org/2000/svg"><path d="M2 36.517h45.684v20H2v-20zm22.666-6.034c.007 0 .013.004.02.004.006 0 .012-.004.02-.004h22.978v4.034H2v-4.034h22.666zm-11.854-19.84c.037-.356.718-1.555 2.118-3.258 1.35 1.574 2.07 2.85 2.076 3.242 0 .798-.45 1.468-1.113 1.808v-1.097a1 1 0 0 0-2 0v1.08a2.006 2.006 0 0 1-1.08-1.776zm9.648 8.77c.042-.345.727-1.51 2.12-3.155 1.434 1.623 2.063 2.816 2.074 3.137 0 .71-.383 1.316-.968 1.66v-.87a1 1 0 0 0-2 0v1c-.728-.305-1.225-.977-1.226-1.77zM32.518 5.87c.03-.36.71-1.586 2.116-3.333 1.358 1.62 2.076 2.925 2.077 3.323A2.09 2.09 0 0 1 35.6 7.725v-.887a1 1 0 0 0-2 0v.87a2.077 2.077 0 0 1-1.08-1.838zm16.166 22.613H35.598V9.847c1.804-.434 3.113-2.023 3.113-3.987 0-1.753-2.572-4.682-3.36-5.537A1.04 1.04 0 0 0 34.596 0c-.285.005-.555.13-.742.347-1.246 1.446-3.337 4.086-3.337 5.513 0 1.952 1.293 3.533 3.08 3.978v18.645h-7.912v-5.286c1.727-.466 2.968-1.96 2.968-3.802 0-1.706-2.585-4.508-3.377-5.326-.192-.2-.505-.285-.735-.306-.277.005-.54.124-.725.33-1.53 1.692-3.356 3.985-3.356 5.3 0 1.934 1.36 3.5 3.226 3.878v5.21h-7.793v-13.93c1.804-.427 3.113-1.992 3.113-3.925 0-1.736-2.58-4.607-3.37-5.445a1.017 1.017 0 0 0-.745-.314.994.994 0 0 0-.733.34c-1.25 1.42-3.344 4.013-3.344 5.42 0 1.92 1.292 3.477 3.08 3.915v13.94H1a1 1 0 0 0-1 1v28.033a1 1 0 0 0 1 1h47.684a1 1 0 0 0 1-1V29.483a1 1 0 0 0-1-1z"/></svg>