<?xml version="1.0" encoding="utf-8"?><svg width="49" height="57" viewBox="0 0 49 57" xmlns="http://www.w3.org/2000/svg"><path d="M24.045 55C11.89 55 2 45.115 2 32.965 2 21.63 10.607 12.27 21.63 11.063l.106.045 2.326-.03 2.295.03.103-.045C37.48 12.27 46.082 21.63 46.082 32.965 46.082 45.115 36.196 55 24.045 55M21.13 7.996L19.41 2h9.272l-1.72 5.995c-.108.374-.46.76-.892 1.026a23.734 23.734 0 0 0-2.023-.09c-.682 0-1.355.034-2.022.09-.434-.264-.785-.65-.892-1.024m7.387 1.357c.157-.258.284-.527.364-.805l1.83-6.37c.18-.61.127-1.16-.18-1.597-.296-.374-.81-.58-1.45-.58H19.01c-.648 0-1.166.21-1.477.617-.282.392-.337.946-.157 1.554l1.833 6.38c.08.277.206.545.363.802C8.445 11.454 0 21.24 0 32.965 0 46.218 10.787 57 24.045 57 37.3 57 48.082 46.218 48.082 32.965c0-11.726-8.442-21.51-19.565-23.612"/></svg>