<svg width="20" height="54" viewBox="0 0 20 54" xmlns="http://www.w3.org/2000/svg"><path d="M7.522 25.75v26.3a1.25 1.25 0 0 1-2.5 0v-26.3H1.25a1.25 1.25 0 0 1 0-2.5h3.773v-9.373l-.004-.14c-.012-.564.002-1.29.06-2.124a22.77 22.77 0 0 1 .525-3.632c.487-2.07 1.264-3.755 2.432-4.92 1-.997 2.278-1.724 3.764-2.228a15.994 15.994 0 0 1 3.485-.737 16.193 16.193 0 0 1 2.033-.09 1.25 1.25 0 1 1-.096 2.498h-.04c-.404-.01-.97.01-1.64.08a13.542 13.542 0 0 0-2.938.616c-1.148.39-2.1.93-2.802 1.63-.78.778-1.373 2.066-1.763 3.723a20.326 20.326 0 0 0-.467 3.23 22.048 22.048 0 0 0-.054 1.905c0 .085 0 .085.002.142v9.42h10.334a1.25 1.25 0 0 1 0 2.5H7.522z"/></svg>