<svg width="78" height="50" viewBox="0 0 78 50" xmlns="http://www.w3.org/2000/svg"><path d="M75.422 44.394l.233 2.07a.9.9 0 1 0 1.79-.203l-.425-3.764a.898.898 0 0 0-.943-.806l-3.785.17a.9.9 0 0 0 .08 1.8l1.398-.064c-.366 2.1-4.56 4.603-8.967 4.603-3.54 0-5.926-.594-9.557-2.057l-.915-.37c-.365-.15-.643-.26-.915-.366-2.49-.97-4.322-1.42-6.548-1.45-3.03-.038-5.42.838-7.208 2.33a8.63 8.63 0 0 0-1.517 1.63 5.466 5.466 0 0 0-.488.803h1.633a5.466 5.466 0 0 0-.487-.804 8.63 8.63 0 0 0-1.516-1.63c-1.788-1.49-4.177-2.367-7.207-2.328-2.226.028-4.06.478-6.55 1.45-.27.105-.55.216-.915.364-.015.006-.712.29-.915.37-3.63 1.464-6.018 2.057-9.556 2.057-4.23 0-8.38-2.457-9.006-4.653a.9.9 0 1 0-1.732.493C2.272 47.1 7.174 50 12.142 50c3.806 0 6.402-.645 10.228-2.187l.918-.372c.36-.144.63-.253.895-.356 2.305-.9 3.942-1.3 5.917-1.326 2.594-.033 4.567.69 6.03 1.912.495.412.893.85 1.202 1.288.178.25.284.436.323.52a.9.9 0 0 0 1.633 0c.04-.084.145-.27.323-.52.31-.437.71-.876 1.203-1.288 1.463-1.22 3.437-1.945 6.03-1.912 1.975.026 3.612.427 5.918 1.326.264.103.536.212.895.357.014.007.713.29.918.373C58.4 49.355 60.995 50 64.803 50c4.915 0 9.67-2.682 10.62-5.606zM3.432 1.896C4.66 3.89 8.35 5.81 12.098 5.81c3.537 0 5.925-.592 9.555-2.055.203-.082.9-.365.916-.37.366-.15.644-.26.916-.366 2.49-.973 4.323-1.422 6.55-1.45 3.03-.04 5.418.837 7.206 2.33a8.63 8.63 0 0 1 1.517 1.628c.244.345.403.624.486.804h-1.633c.084-.18.243-.46.488-.804a8.63 8.63 0 0 1 1.518-1.63c1.788-1.49 4.177-2.367 7.207-2.328 2.226.028 4.06.477 6.548 1.45.272.105.55.216.916.364.015.006.712.29.914.37 3.63 1.464 6.02 2.057 9.557 2.057 4.284 0 8.373-2.348 8.94-4.473a.9.9 0 0 1 1.74.464c-.807 3.025-5.657 5.812-10.68 5.812-3.807 0-6.403-.646-10.23-2.187l-.917-.372c-.36-.145-.63-.254-.894-.357-2.306-.9-3.944-1.3-5.918-1.326-2.594-.033-4.567.69-6.03 1.912a6.837 6.837 0 0 0-1.203 1.287 3.85 3.85 0 0 0-.324.52.9.9 0 0 1-1.633 0 3.85 3.85 0 0 0-.323-.52 6.837 6.837 0 0 0-1.2-1.288c-1.465-1.22-3.438-1.945-6.032-1.912-1.975.025-3.612.427-5.917 1.326-.263.103-.535.212-.894.357l-.918.372c-3.826 1.54-6.422 2.187-10.23 2.187-4.232 0-8.413-2.1-10.1-4.627l-.203 1.79a.9.9 0 1 1-1.79-.203L.43.807A.898.898 0 0 1 1.373 0L5.16.17a.9.9 0 1 1-.082 1.8L3.43 1.896zm39.166 22.637c-3.09 2.183-6.75 1.195-8.454-.002a.958.958 0 0 0-1.337.236.96.96 0 0 0 .235 1.337c1.398.982 3.343 1.657 5.415 1.657a9 9 0 0 0 5.25-1.66.96.96 0 1 0-1.11-1.567z"/></svg>