<?xml version="1.0" encoding="utf-8"?><svg width="64" height="57" viewBox="0 0 64 57" xmlns="http://www.w3.org/2000/svg"><path d="M35.553 27.886c-.065 0-.122.025-.185.037H29.49V15.95h19v11.936H35.554zm-1 13.555h-8.868c-.032-.002-.06-.018-.092-.018h-10.04V29.886H28.49c.14 0 .27-.028.39-.08a.988.988 0 0 0 .446.117h5.227V41.44zM2 55V43.44h12.552c.083 0 .156-.028.233-.046.05.007.092.028.142.028H21V55H2zM63.075 4.564L59.462.6A1.002 1.002 0 0 0 57.986.6l-3.832 4.184a1 1 0 0 0 1.474 1.35l2.097-2.288V13.95H28.49a1 1 0 0 0-1 1v12.936H14.552a1 1 0 0 0-1 1V41.44H1a1 1 0 0 0-1 1V56a1 1 0 0 0 1 1h21a1 1 0 0 0 1-1V43.44h12.553a1 1 0 0 0 1-1V29.924h3.44c.067 0 .123-.025.185-.037h9.313a1 1 0 0 0 1-1V15.95h8.235a1 1 0 0 0 1-1V3.858l1.872 2.053a1 1 0 1 0 1.478-1.347z"/></svg>