<?xml version="1.0" encoding="utf-8"?><svg width="35" height="35" viewBox="0 0 35 35" xmlns="http://www.w3.org/2000/svg"><path d="M2.5 3v29c0 .272.227.5.5.5h29c.272 0 .5-.227.5-.5V3c0-.272-.227-.5-.5-.5H3c-.272 0-.5.227-.5.5zM0 3c0-1.657 1.35-3 3-3h29c1.657 0 3 1.35 3 3v29c0 1.657-1.35 3-3 3H3c-1.657 0-3-1.35-3-3V3z"/><path d="M.64 15.5H11V13H.25v2.5h.39zM24.39 15.5H34.75V13H24v2.5h.39z"/><path d="M17.5 25.25a8.75 8.75 0 1 0 0-17.5 8.75 8.75 0 0 0 0 17.5zm0-2.5a6.25 6.25 0 1 1 0-12.5 6.25 6.25 0 0 1 0 12.5zM29.5 1.998v4.004a.507.507 0 0 0-.502-.502h4.004a.507.507 0 0 0-.502.502V1.998c0 .274.23.502.502.502h-4.004c.274 0 .502-.23.502-.502zm-2.5 0C27 .895 27.887 0 28.998 0h4.004C34.105 0 35 .887 35 1.998v4.004A1.993 1.993 0 0 1 33.002 8h-4.004A1.993 1.993 0 0 1 27 6.002V1.998z"/></svg>