<svg width="43" height="43" viewBox="0 0 43 43" xmlns="http://www.w3.org/2000/svg"><path d="M24.082 30.046a8.25 8.25 0 0 0 1.728-5.067 8.295 8.295 0 0 0-5.526-7.82 1.25 1.25 0 0 1 .834-2.358A10.795 10.795 0 0 1 28.31 24.98a10.75 10.75 0 0 1-2.418 6.807 1.256 1.256 0 0 1-.178.18 114.07 114.07 0 0 1-1.158 1.253 134.52 134.52 0 0 1-3.07 3.185c-.287.286-.568.564-.842.832-1.777 1.733-3.2 2.968-4.21 3.59a10.746 10.746 0 0 1-5.642 1.59C4.832 42.416 0 37.583 0 31.623c0-2.513.863-4.898 2.418-6.808l.1-.108L9.92 17.52a1.25 1.25 0 1 1 1.743 1.794l-7.405 7.188.1-.108a8.25 8.25 0 0 0-1.858 5.23 8.292 8.292 0 0 0 12.624 7.072c.804-.494 2.127-1.642 3.775-3.25.265-.26.538-.53.817-.808a132.084 132.084 0 0 0 3.966-4.156 76.452 76.452 0 0 0 .4-.436zm-.367-26.644l2.055-1.708.145-.104A10.746 10.746 0 0 1 31.555 0c5.96 0 10.792 4.832 10.792 10.792A10.75 10.75 0 0 1 39.93 17.6l-.086.095-7.59 7.59a1.25 1.25 0 0 1-1.77-1.767l7.592-7.59-.085.094a8.25 8.25 0 0 0 1.857-5.23A8.292 8.292 0 0 0 27.223 3.72l.145-.104-2.495 2.075-6.722 6.7.088-.095a8.25 8.25 0 0 0-1.856 5.23c0 3.53 2.226 6.638 5.496 7.81a1.25 1.25 0 1 1-.843 2.353 10.795 10.795 0 0 1-7.153-10.163c0-2.514.863-4.898 2.417-6.808l.086-.096 6.683-6.66c.035-.04.073-.08.114-.116l.212-.21a1.25 1.25 0 0 1 .32-.232z"/></svg>