<svg width="184" height="20" viewBox="0 0 184 20" xmlns="http://www.w3.org/2000/svg"><path d="M10.535 4.388c.934 0 1.427-.493 1.427-1.427V1.923c0-.934-.493-1.427-1.427-1.427H2.02C1.086.495.593.988.593 1.922v15.705c0 .935.493 1.428 1.427 1.428h1.688c.934 0 1.427-.493 1.427-1.428v-5.45h4.23c.936 0 1.43-.494 1.43-1.43V9.71c0-.934-.494-1.428-1.43-1.428h-4.23V4.388h5.4M17.75 9.658c0 5.45 3.947 9.708 9.71 9.708 5.763 0 9.708-4.257 9.708-9.708 0-5.322-3.945-9.475-9.708-9.475s-9.71 4.153-9.71 9.475zm14.72 0c0 3.167-2.077 5.555-5.01 5.555-2.934 0-5.01-2.388-5.01-5.555 0-3.037 2.076-5.322 5.01-5.322 2.933 0 5.01 2.285 5.01 5.322zM49.888 10.41l4.595 7.685c.39.675.908.96 1.687.96h2.025c.934 0 1.427-.493 1.427-1.428V1.922c0-.934-.493-1.427-1.427-1.427h-1.688c-.934 0-1.427.493-1.427 1.427v7.243c0 1.168.207 3.167.207 3.167h-.05s-.832-1.947-1.56-3.167l-4.568-7.71c-.39-.675-.91-.96-1.714-.96H45.37c-.933 0-1.426.493-1.426 1.427v15.705c0 .935.493 1.428 1.427 1.428h1.69c.933 0 1.426-.493 1.426-1.428V10.41c0-1.167-.207-3.166-.207-3.166h.05s.83 1.947 1.558 3.167M69.824.495c-.935 0-1.428.493-1.428 1.427v15.705c0 .935.493 1.428 1.428 1.428h5.165c5.84 0 9.578-3.48 9.578-9.32S80.83.496 74.988.496h-5.164zm10.046 9.24c0 3.557-1.92 5.426-5.062 5.426h-1.87V4.39h1.87c3.063 0 5.062 1.817 5.062 5.348zM101.338 4.388c.934 0 1.427-.493 1.427-1.427V1.923c0-.934-.493-1.427-1.427-1.427h-8.515c-.934 0-1.427.493-1.427 1.427v15.705c0 .935.493 1.428 1.427 1.428h1.688c.935 0 1.428-.493 1.428-1.428v-5.45h4.232c.934 0 1.427-.494 1.427-1.43V9.71c0-.934-.493-1.428-1.427-1.428h-4.232V4.388h5.4M108.035 9.658c0 5.45 3.946 9.708 9.708 9.708 5.763 0 9.71-4.257 9.71-9.708 0-5.322-3.947-9.475-9.71-9.475-5.762 0-9.708 4.153-9.708 9.475zm14.718 0c0 3.167-2.076 5.555-5.01 5.555-2.933 0-5.01-2.388-5.01-5.555 0-3.037 2.077-5.322 5.01-5.322 2.934 0 5.01 2.285 5.01 5.322zM137.342.495h-1.687c-.935 0-1.428.493-1.428 1.427v15.705c0 .935.493 1.428 1.428 1.428h9.267c.935 0 1.428-.493 1.428-1.428V16.59c0-.935-.493-1.43-1.428-1.43h-6.152V1.923c0-.934-.493-1.427-1.428-1.427M153.8.495c-.935 0-1.428.493-1.428 1.427v15.705c0 .935.493 1.428 1.428 1.428h1.687c.934 0 1.428-.493 1.428-1.428V1.922c0-.934-.494-1.427-1.428-1.427H153.8M163.69 9.658c0 5.45 3.945 9.708 9.708 9.708s9.71-4.257 9.71-9.708c0-5.322-3.947-9.475-9.71-9.475-5.763 0-9.71 4.153-9.71 9.475zm14.718 0c0 3.167-2.077 5.555-5.01 5.555s-5.01-2.388-5.01-5.555c0-3.037 2.077-5.322 5.01-5.322s5.01 2.285 5.01 5.322z"/></svg>