<svg width="65" height="57" viewBox="0 0 65 57" xmlns="http://www.w3.org/2000/svg"><path d="M35.68 7.382l2.762 8.52a1 1 0 1 0 1.902-.618L37.58 6.76l12.845-4.22 8.84 26.926-26.926 8.84-8.842-26.924 12.182-4zM30.75 39.88a1 1 0 0 0 1.263.64l28.824-9.466a1 1 0 0 0 .64-1.262L52.012.968a1.005 1.005 0 0 0-.5-.58c-.236-.12-.51-.14-.762-.06L21.926 9.795a1 1 0 0 0-.64 1.262l9.466 28.824zM26.54 55a5.47 5.47 0 0 1-5.464-5.462 5.47 5.47 0 0 1 5.463-5.462c3.01 0 5.46 2.45 5.46 5.462A5.468 5.468 0 0 1 26.54 55zm37.75-17.597a1 1 0 0 0-1.256-.65l-29.8 9.512c-1.216-2.476-3.755-4.19-6.695-4.19-.546 0-1.076.064-1.59.175L13.535 7.098a1.003 1.003 0 0 0-.512-.59L1.44.848a1 1 0 0 0-.88 1.796l11.202 5.474 11.31 34.82c-2.372 1.25-3.996 3.737-3.996 6.6 0 4.115 3.348 7.462 7.463 7.462 4.114 0 7.46-3.347 7.46-7.462 0-.47-.05-.93-.132-1.376l29.774-9.503a1 1 0 0 0 .65-1.257z"/></svg>