<svg width="62" height="58" viewBox="0 0 62 58" xmlns="http://www.w3.org/2000/svg"><path d="M40.216 30.862a1 1 0 0 1-.023 1.414c-2.22 2.15-5.566 3.383-9.178 3.383-3.713 0-7.115-1.29-9.334-3.54a1 1 0 1 1 1.425-1.404c1.818 1.842 4.775 2.943 7.91 2.943 3.053 0 5.964-1.055 7.787-2.82a1 1 0 0 1 1.414.022M59.54 13.738c-2.04 2.455-4.08 4.91-6.117 7.365-.505.61-.81.59-1.414.15-.633-.462-1.28-.9-1.977-1.37l-.948-.64a1 1 0 0 0-1.564.824v22.028c0 .964-.198 1.163-1.18 1.18-5.48.107-9.48 3.508-10.436 8.88-.1.564-.127 1.12-.154 1.656l-.022.44c-.02.34-.165.743-.747.744-1.344.004-2.69.006-4.034.006l-4.034-.005c-.497 0-.743-.248-.754-.754-.064-3.048-.916-5.474-2.607-7.418-1.828-2.1-4.337-3.285-7.46-3.528a6.554 6.554 0 0 0-.467-.015l-.186-.004c-.846-.018-1.078-.257-1.08-1.106v-22.1a1 1 0 0 0-1.563-.825l-.95.64c-.69.464-1.335.9-1.964 1.358-.38.277-.61.336-.738.336-.19 0-.416-.16-.675-.47-2.052-2.47-4.105-4.938-6.154-7.408-.57-.688-.238-1.01-.06-1.183 4.26-4.152 7.915-6.788 11.85-8.547a24.36 24.36 0 0 1 7.033-1.946c.147-.02.28-.028.404-.028.352 0 .513 0 .925.797 1.773 3.448 4.7 5.275 8.49 5.284 3.715 0 6.63-1.8 8.427-5.205.46-.872.63-.872 1.006-.872.153 0 .323.014.514.04 4.374.556 8.54 2.284 12.378 5.132 1.78 1.318 3.49 2.825 5.142 4.283l1.103.968c.434.38.547.673.016 1.312m1.3-2.817l-1.095-.963c-1.685-1.485-3.427-3.02-5.273-4.388-4.12-3.057-8.6-4.91-13.318-5.513a6.134 6.134 0 0 0-.766-.054c-1.455 0-2.16.775-2.776 1.938-1.45 2.748-3.69 4.14-6.677 4.14-3.01-.006-5.262-1.42-6.693-4.198C23.738.902 23.062 0 21.54 0c-.196 0-.41.012-.644.04a26.4 26.4 0 0 0-7.61 2.107c-4.16 1.86-7.992 4.617-12.427 8.94-1.115 1.08-1.15 2.608-.087 3.89 2.05 2.472 4.104 4.944 6.157 7.41 1.165 1.402 2.607 1.584 4.13.47a44.83 44.83 0 0 1 1.298-.905V42.17c.003 1.93 1.108 3.062 3.032 3.106l.217.003c.11 0 .224 0 .33.008 2.616.203 4.613 1.135 6.106 2.847 1.37 1.576 2.062 3.586 2.115 6.147.033 1.593 1.163 2.708 2.75 2.713l4.038.005c1.347 0 2.694-.002 4.04-.006 1.522-.003 2.648-1.083 2.738-2.627l.024-.46c.024-.495.046-.963.124-1.4.79-4.442 3.97-7.144 8.505-7.23 2.057-.04 3.144-1.14 3.144-3.182V21.952c.452.306.884.604 1.31.915 1.504 1.1 2.967.916 4.132-.486 2.037-2.455 4.076-4.91 6.116-7.363 1.174-1.41 1.085-2.94-.237-4.096"/></svg>