<?xml version="1.0" encoding="utf-8"?><svg width="55" height="58" viewBox="0 0 55 58" xmlns="http://www.w3.org/2000/svg"><path d="M52.574 33.34c-.777-12.346-7.96-18.167-10.627-19.916l-1.235 4.132a1.002 1.002 0 0 1-1.244.672 1 1 0 0 1-.672-1.244L41.953 6.42C40.485 5.294 35.503 2 27.35 2c-.014 0-.026-.007-.04-.008-.013 0-.025.008-.04.008-8.15 0-13.133 3.292-14.602 4.42l3.155 10.564a1 1 0 0 1-1.916.572l-1.237-4.143C9.988 15.135 2.832 20.86 2.047 33.34c-.742 11.77 7.606 14.83 11.226 15.6-3.966-6.217-4.522-14.03-4.598-15.853-.36.008-.72.013-1.07.013a1 1 0 0 1 0-2c6.102 0 13.057-1.036 18.535-8.547-.498-1.118-.767-2.26-.767-3.408a1 1 0 0 1 2 0c0 2.734 1.944 4.99 3.576 6.4 4.312 3.728 11.69 6.19 16.458 5.5a.99.99 0 0 1 1.134.844 1 1 0 0 1-.845 1.133c-.558.08-1.15.12-1.764.126-.122 1.9-.86 9.687-4.956 15.865 3.38-.637 12.365-3.482 11.597-15.675m-8.638-.286c-4.855-.49-10.618-2.817-14.295-5.996a15.06 15.06 0 0 1-2.42-2.627c-4.996 6.396-11.135 8.16-16.55 8.56.046 1.232.337 5.968 2.164 10.712 2.75 7.14 7.54 10.942 14.242 11.3 14.937-.8 16.68-19.04 16.86-21.948m-4.06 18.133a1 1 0 0 1-.476-.09c-2.764 3.205-6.69 5.62-12.273 5.904l-.05.003-.052-.002c-5.538-.28-9.4-2.662-12.102-5.83-.037.003-.07.02-.108.02a.86.86 0 0 1-.07-.003C14.586 51.177-1 49.887.05 33.215.94 19.1 9.51 12.96 12.078 11.43l-1.48-4.958c-.004-.012 0-.024-.003-.034a.993.993 0 0 1 .24-1.097C11.066 5.124 16.652 0 27.27 0c.015 0 .027.007.04.008.014 0 .026-.008.04-.008 10.62 0 16.204 5.123 16.437 5.34.31.29.39.73.24 1.1-.003.01 0 .02-.003.032l-1.48 4.957c2.563 1.53 11.137 7.67 12.026 21.785 1.05 16.673-14.536 17.96-14.693 17.972m-7.884-6.245c-3.218 2.273-7.027 1.244-8.802-.002a.997.997 0 0 0-1.39.244.998.998 0 0 0 .243 1.392c1.456 1.023 3.48 1.726 5.64 1.726 1.816 0 3.725-.5 5.464-1.728a1 1 0 1 0-1.154-1.632M31.97 9.95a1 1 0 0 1-1 1h-2.66v2.66a1 1 0 0 1-2 0v-2.66h-2.66a1 1 0 0 1 0-2h2.66V6.286a1 1 0 0 1 2 0V8.95h2.66a1 1 0 0 1 1 1"/></svg>