<?xml version="1.0" encoding="utf-8"?><svg width="50" height="57" viewBox="0 0 50 57" xmlns="http://www.w3.org/2000/svg"><path d="M48.925 49.418a.998.998 0 0 0-1.288.583 7.47 7.47 0 0 1-6.96 4.814 7.467 7.467 0 0 1-6.96-4.823c-.006-.012-.018-.02-.022-.034-.014-.03-.038-.055-.053-.084a.98.98 0 0 0-.896-.516c-.012 0-.023.004-.035.004-.094.007-.188.01-.28.045-.024.008-.037.027-.06.036-.01.006-.017.014-.027.02a.976.976 0 0 0-.282.2c-.01.012-.018.03-.03.04a.99.99 0 0 0-.173.28c-.003.008-.01.013-.013.02a7.47 7.47 0 0 1-6.957 4.814 7.467 7.467 0 0 1-6.962-4.823c-.166-.445-.618-.678-1.068-.62a.987.987 0 0 0-1 .63A7.47 7.47 0 0 1 8.9 54.815a7.467 7.467 0 0 1-6.963-4.823 1 1 0 0 0-1.873.7A9.477 9.477 0 0 0 8.9 56.816c3.273 0 6.29-1.728 7.993-4.438 1.703 2.71 4.72 4.438 7.994 4.438 3.21 0 6.176-1.66 7.894-4.28 1.72 2.62 4.686 4.28 7.898 4.28 3.906 0 7.455-2.455 8.83-6.108a1 1 0 0 0-.583-1.288zM13.703 26.76A12.197 12.197 0 0 0 25.2 34.922c1.37 0 2.724-.232 4.03-.688 6.34-2.22 9.69-9.185 7.47-15.525a12.2 12.2 0 0 0-11.5-8.163c-1.366 0-2.72.23-4.024.687-6.34 2.22-9.692 9.186-7.473 15.526zm-1.28-10.178a14.09 14.09 0 0 1 8.093-7.234c1.516-.532 3.093-.8 4.685-.8a14.2 14.2 0 0 1 13.39 9.5c2.583 7.38-1.32 15.488-8.7 18.073-1.518.532-3.095.802-4.69.802a14.198 14.198 0 0 1-13.384-9.502 14.085 14.085 0 0 1 .607-10.838zm.35-6.205a1 1 0 1 0 1.568-1.242l-2.825-3.57a1 1 0 0 0-1.57 1.244l2.828 3.567zm-9.915 11.84l4.832.514a1 1 0 1 0 .21-1.99l-4.83-.51a.987.987 0 0 0-1.1.887 1 1 0 0 0 .888 1.1zm8.44 11.457l-3.398 2.8a.998.998 0 0 0 .636 1.772c.224 0 .45-.075.635-.228l3.4-2.8a1 1 0 1 0-1.272-1.543zm11.603 6.36l-.38 4.398a1 1 0 1 0 1.992.172l.38-4.397a1 1 0 0 0-.91-1.082.98.98 0 0 0-1.08.91zm13.078-4.883c-.42.36-.467.993-.108 1.412l2.914 3.396a.997.997 0 0 0 1.41.107 1 1 0 0 0 .108-1.41l-2.914-3.396a1 1 0 0 0-1.41-.11zm5.608-11.044a1 1 0 0 0 .932 1.064l4.32.29h.067c.522 0 .962-.404.998-.933a1 1 0 0 0-.932-1.064l-4.32-.29c-.538-.015-1.028.382-1.064.933zm-3.19-11.77a1 1 0 0 0 .667-.254l3.234-2.887a1 1 0 0 0-1.332-1.492L37.73 10.59a1 1 0 0 0 .667 1.746zm-13.094-7.05l.203-4.33c.026-.553.497-1 1.046-.953a1 1 0 0 1 .953 1.046L27.3 5.38a1 1 0 0 1-.998.954h-.048a1 1 0 0 1-.952-1.047z"/></svg>