<svg width="57" height="57" viewBox="0 0 57 57" xmlns="http://www.w3.org/2000/svg"><path d="M36.83 54.443c-8.902 0-16.264-6.637-17.443-15.215.08 0 .16.012.24.012 10.82 0 19.62-8.802 19.62-19.62 0-.078-.01-.155-.01-.233 8.58 1.18 15.216 8.54 15.216 17.437 0 9.715-7.905 17.62-17.623 17.62m.418-34.824c0 9.716-7.905 17.62-17.62 17.62-.138 0-.27-.018-.404-.02-.004-.133-.02-.262-.02-.396 0-9.716 7.906-17.62 17.626-17.62.135 0 .265.017.397.02.004.133.02.262.02.396M2 19.62C2 9.904 9.907 2 19.627 2c8.898 0 16.26 6.636 17.437 15.215-.08 0-.155-.01-.234-.01-10.822 0-19.627 8.8-19.627 19.62 0 .077.01.152.012.23C8.635 35.875 2 28.515 2 19.62m37.105-2.274C37.975 7.596 29.677 0 19.627 0 8.805 0 0 8.8 0 19.62c0 10.046 7.596 18.34 17.346 19.476 1.13 9.75 9.43 17.347 19.484 17.347 10.82 0 19.623-8.8 19.623-19.62 0-10.047-7.597-18.344-17.348-19.477"/></svg>